<svg viewBox="0 0 100 100" xmlns="http://www.w3.org/2000/svg"><rect width="100" height="100" fill="#0f172a"/><circle cx="20" cy="20" r="3" fill="#84cc16"/><circle cx="35" cy="20" r="3" fill="#a855f7"/><circle cx="50" cy="20" r="3" fill="#84cc16"/><circle cx="65" cy="20" r="3" fill="#a855f7"/><circle cx="80" cy="20" r="3" fill="#84cc16"/><circle cx="20" cy="40" r="3" fill="#a855f7"/><circle cx="35" cy="40" r="4" fill="#84cc16"/><circle cx="50" cy="40" r="3" fill="#a855f7"/><circle cx="65" cy="40" r="4" fill="#84cc16"/><circle cx="80" cy="40" r="3" fill="#a855f7"/><circle cx="20" cy="60" r="3" fill="#84cc16"/><circle cx="35" cy="60" r="3" fill="#a855f7"/><circle cx="50" cy="60" r="3" fill="#84cc16"/><circle cx="65" cy="60" r="3" fill="#a855f7"/><circle cx="80" cy="60" r="3" fill="#84cc16"/><circle cx="20" cy="80" r="3" fill="#a855f7"/><circle cx="35" cy="80" r="3" fill="#84cc16"/><circle cx="50" cy="80" r="4" fill="#a855f7"/><circle cx="65" cy="80" r="3" fill="#84cc16"/><circle cx="80" cy="80" r="3" fill="#a855f7"/></svg>
